<svg width="15" height="27" viewBox="0 0 15 27" fill="none" xmlns="http://www.w3.org/2000/svg">
<path fill-rule="evenodd" clip-rule="evenodd" d="M13.6605 0.00502344L10.2555 -0.000976562C6.43049 -0.000976562 3.95849 2.60702 3.95849 6.64402V9.70802H0.535488C0.239488 9.70802 0.000488281 9.95502 0.000488281 10.259V14.698C0.000488281 15.002 0.239488 15.248 0.535488 15.248H3.95849V26.45C3.95849 26.754 4.19849 27 4.49349 27H8.96049C9.25649 27 9.49549 26.753 9.49549 26.45V15.248H13.4985C13.7945 15.248 14.0335 15.002 14.0335 14.698L14.0355 10.259C14.0355 10.113 13.9785 9.97302 13.8785 9.87002C13.7775 9.76602 13.6415 9.70802 13.4995 9.70802H9.49549V7.11102C9.49549 5.86202 9.78549 5.22902 11.3665 5.22902L13.6595 5.22802C13.9555 5.22802 14.1955 4.98102 14.1955 4.67802V0.556023C14.1955 0.252023 13.9555 0.00502344 13.6605 0.00502344Z" fill="#FEFEFE"/>
</svg>
