<svg width="189" height="33" viewBox="0 0 189 33" fill="none" xmlns="http://www.w3.org/2000/svg">
<path fill-rule="evenodd" clip-rule="evenodd" d="M183.439 5.15151C182.923 5.15151 182.531 5.34551 182.276 5.72951C182.044 6.08151 181.931 6.65851 181.931 7.49451C181.931 8.37851 182.013 8.93351 182.188 9.24051C182.326 9.48351 182.622 9.77351 183.252 9.77351H184.487V26.7195C184.487 27.4235 184.879 28.2635 186.744 28.2635C188.609 28.2635 189 27.4235 189 26.7195V7.11151C189 6.21751 188.576 5.15151 186.557 5.15151H183.439ZM170.591 23.7695H163.337V18.2355H170.279C171.026 18.2355 171.559 18.0805 171.908 17.7605C172.263 17.4365 172.442 16.9045 172.442 16.1805C172.442 15.4615 172.265 14.9215 171.916 14.5755C171.569 14.2345 171.019 14.0615 170.279 14.0615H163.337V9.26151H170.591C171.258 9.26151 171.791 9.10651 172.174 8.79951C172.582 8.47351 172.777 7.92351 172.754 7.16551C172.73 6.42151 172.533 5.88151 172.169 5.55951C171.814 5.24651 171.293 5.08751 170.622 5.08751H160.986C160.249 5.08751 159.702 5.23251 159.314 5.53051C158.906 5.84451 158.699 6.38651 158.699 7.14251V25.8885C158.699 26.6725 158.92 27.2235 159.357 27.5255C159.759 27.8035 160.306 27.9445 160.986 27.9445H170.591C171.454 27.9445 172.062 27.7995 172.45 27.5015C172.858 27.1875 173.066 26.6335 173.066 25.8565C173.066 25.0805 172.858 24.5265 172.45 24.2135C172.062 23.9145 171.454 23.7695 170.591 23.7695ZM153.873 22.3275C153.281 22.0505 152.66 22.1315 152.046 22.5865C151.778 22.7975 151.508 23.0035 151.241 23.2045C150.987 23.3945 150.697 23.5745 150.378 23.7375C150.065 23.8985 149.696 24.0355 149.281 24.1465C148.867 24.2585 148.375 24.3245 147.822 24.3445L147.678 24.3465C146.669 24.3465 145.767 24.1365 145 23.7235C144.19 23.2895 143.503 22.6995 142.96 21.9715C142.413 21.2375 141.994 20.3835 141.713 19.4315C141.432 18.4755 141.29 17.4785 141.29 16.4685C141.29 15.4555 141.418 14.4665 141.669 13.5295C141.919 12.5975 142.293 11.7635 142.78 11.0505C143.263 10.3445 143.872 9.76651 144.592 9.33251C145.302 8.90451 146.128 8.68751 147.047 8.68751C147.876 8.68751 148.576 8.81251 149.128 9.06151C149.705 9.32051 150.211 9.59151 150.632 9.86951C151.074 10.1605 151.48 10.4065 151.837 10.6005C152.268 10.8345 152.752 10.8405 153.166 10.6495C153.427 10.5525 153.657 10.4155 153.85 10.2425C154.041 10.0715 154.173 9.92351 154.263 9.76751C154.307 9.67751 154.367 9.53151 154.445 9.32651C154.536 9.08651 154.557 8.79951 154.509 8.47651C154.459 8.09651 154.244 7.67651 153.851 7.19151C153.479 6.73251 152.962 6.29151 152.315 5.88251C151.673 5.47751 150.905 5.13351 150.032 4.86051C149.155 4.58751 148.182 4.44851 147.141 4.44851C145.675 4.44851 144.289 4.72551 143.021 5.27051C141.751 5.81751 140.636 6.61551 139.708 7.64251C138.782 8.66651 138.038 9.93551 137.497 11.4135C136.957 12.8885 136.673 14.5885 136.652 16.4645C136.63 18.3455 136.899 20.0535 137.45 21.5395C138.002 23.0305 138.79 24.3165 139.791 25.3635C140.794 26.4115 141.998 27.2205 143.371 27.7645C144.741 28.3075 146.24 28.5835 147.827 28.5835C148.934 28.5835 149.946 28.4275 150.836 28.1205C151.721 27.8145 152.484 27.4425 153.104 27.0155C153.73 26.5835 154.225 26.1325 154.575 25.6735C154.941 25.1925 155.143 24.8085 155.195 24.4865C155.244 24.0685 155.171 23.6575 154.98 23.2635C154.781 22.8575 154.403 22.5395 153.873 22.3275ZM123.027 18.6925L125.032 12.0785L127.037 18.6925H123.027ZM127.368 6.28651C127.246 5.88851 126.986 5.53151 126.596 5.22751C126.202 4.92251 125.676 4.76751 125.032 4.76751C124.388 4.76751 123.862 4.92251 123.467 5.22751C123.076 5.53251 122.816 5.88851 122.697 6.27951L116.274 25.4735C115.942 26.4645 116.016 27.1945 116.492 27.6415C116.931 28.0545 117.516 28.2635 118.234 28.2635C118.949 28.2635 119.508 28.0815 119.895 27.7235C120.261 27.3835 120.549 26.9305 120.752 26.3785L122.051 22.8985H127.983L129.407 26.5425C129.588 27.0055 129.852 27.4115 130.192 27.7485C130.54 28.0915 131.05 28.2655 131.708 28.2655L131.83 28.2635C132.548 28.2635 133.134 28.0485 133.574 27.6225C134.045 27.1675 134.139 26.4675 133.852 25.5355L127.368 6.28651ZM113.775 5.08751H104.139C103.401 5.08751 102.854 5.23251 102.467 5.53051C102.058 5.84451 101.851 6.38651 101.851 7.14251V26.6555C101.851 27.0385 102.034 27.4075 102.396 27.7525C102.756 28.0965 103.326 28.2635 104.139 28.2635C104.946 28.2635 105.524 28.0985 105.905 27.7585C106.293 27.4135 106.489 27.0425 106.489 26.6555V18.2355H112.808C113.555 18.2355 114.087 18.0805 114.437 17.7605C114.791 17.4365 114.971 16.9045 114.971 16.1805C114.971 15.4845 114.795 14.9515 114.427 14.5765C114.022 14.2345 113.477 14.0615 112.808 14.0615H106.489V9.26151H113.743C114.41 9.26151 114.943 9.10651 115.326 8.79951C115.735 8.47251 115.93 7.92351 115.906 7.16551C115.882 6.42151 115.686 5.88151 115.321 5.55951C114.966 5.24651 114.446 5.08751 113.775 5.08751ZM86.3835 14.3805V9.32551H89.3665C89.8045 9.32551 90.2345 9.36251 90.6425 9.43351C91.0295 9.50151 91.3725 9.62751 91.6615 9.80851C91.9415 9.98451 92.1565 10.2235 92.3205 10.5395C92.4835 10.8575 92.5665 11.2725 92.5665 11.7735C92.5665 12.8495 92.3145 13.5535 91.8175 13.8655C91.2745 14.2075 90.4505 14.3805 89.3665 14.3805H86.3835ZM91.7095 18.3745C91.7375 18.3695 91.7655 18.3635 91.7935 18.3575L92.4235 18.2285C93.8725 17.8965 95.0435 17.2085 95.9025 16.1835C96.7665 15.1525 97.2045 13.6585 97.2045 11.7415C97.2045 10.4965 97.0355 9.43251 96.7005 8.57951C96.3585 7.71351 95.8445 7.01051 95.1705 6.48851C94.5045 5.97551 93.6685 5.60751 92.6845 5.39751C91.7225 5.19151 90.6055 5.08751 89.3665 5.08751H84.6575C84.1065 5.08751 83.6465 5.11551 83.2885 5.17051C82.8905 5.23351 82.5865 5.35151 82.3575 5.53351C82.1195 5.72351 81.9545 5.99251 81.8655 6.32951C81.7855 6.63351 81.7465 7.01451 81.7465 7.49451V26.3045C81.7465 26.7575 81.9155 27.1975 82.2495 27.6115C82.5975 28.0445 83.1865 28.2635 84.0025 28.2635C84.8065 28.2635 85.4105 28.0625 85.7995 27.6655C86.1875 27.2675 86.3835 26.8095 86.3835 26.3045V19.3245L94.1495 27.6975C94.5205 28.0775 95.0025 28.2705 95.5795 28.2705C95.6455 28.2705 95.7115 28.2675 95.7805 28.2625C96.4305 28.2145 96.9965 27.9495 97.4625 27.4735C97.9355 26.9885 98.1635 26.4195 98.1395 25.7815C98.1165 25.1535 97.8675 24.5915 97.3985 24.1115L91.7095 18.3745ZM75.3965 4.76751C74.5395 4.76751 73.9285 4.98751 73.5805 5.41951C73.2465 5.83451 73.0775 6.27451 73.0775 6.72751V18.5435C73.0775 19.4585 73.0155 20.2795 72.8945 20.9825C72.7775 21.6595 72.5585 22.2375 72.2415 22.6995C71.9305 23.1525 71.5045 23.5055 70.9735 23.7475C70.4325 23.9955 69.7275 24.1205 68.8785 24.1205C68.0095 24.1205 67.2895 23.9905 66.7385 23.7325C66.1975 23.4805 65.7665 23.1175 65.4555 22.6535C65.1355 22.1775 64.9045 21.5915 64.7675 20.9105C64.6265 20.2105 64.5555 19.4145 64.5555 18.5435V6.72751C64.5555 6.22551 64.3715 5.76951 64.0085 5.37351C63.6405 4.97151 63.0445 4.76751 62.2365 4.76751C61.4245 4.76751 60.8265 4.98451 60.4575 5.41251C60.0995 5.82951 59.9175 6.27151 59.9175 6.72751V20.5235C59.9175 21.8685 60.1865 23.0505 60.7175 24.0375C61.2445 25.0165 61.9375 25.8435 62.7775 26.4945C63.6125 27.1415 64.5725 27.6305 65.6315 27.9485C66.6835 28.2635 67.7655 28.4235 68.8475 28.4235C69.9495 28.4235 71.0425 28.2635 72.0945 27.9485C73.1545 27.6305 74.1105 27.1345 74.9365 26.4755C75.7655 25.8135 76.4425 24.9815 76.9485 24.0005C77.4565 23.0135 77.7145 21.8435 77.7145 20.5235V6.72751C77.7145 6.22551 77.5305 5.76951 77.1685 5.37351C76.7995 4.97151 76.2035 4.76751 75.3965 4.76751ZM55.4495 16.9985C54.9865 16.4915 54.3935 16.0125 53.6875 15.5735C52.9955 15.1445 52.1655 14.7085 51.2225 14.2785C50.8455 14.1065 50.4205 13.9245 49.9495 13.7315C49.4985 13.5465 49.0635 13.3185 48.6565 13.0535C48.2575 12.7955 47.9195 12.4945 47.6495 12.1575C47.4005 11.8495 47.2795 11.4935 47.2795 11.0715C47.2795 10.8135 47.3355 10.5455 47.4445 10.2745C47.5555 10.0005 47.7105 9.75051 47.9045 9.53151C48.0985 9.31551 48.3375 9.13351 48.6155 8.99151C49.1345 8.72451 49.8505 8.72751 50.5045 8.93051C50.8305 9.03151 51.1415 9.15451 51.4285 9.29651C51.7175 9.43851 51.9945 9.59851 52.2535 9.77251C52.5205 9.95151 52.7575 10.1155 52.9405 10.2435C53.1255 10.4055 53.3605 10.5145 53.6395 10.5665C53.9055 10.6165 54.1795 10.6095 54.4555 10.5485C54.7265 10.4885 54.9885 10.3785 55.2335 10.2235C55.4875 10.0625 55.7025 9.84251 55.8765 9.56251C56.1935 9.01351 56.2365 8.42651 56.0065 7.81651C55.7905 7.24751 55.3825 6.71651 54.7935 6.23751C54.2205 5.77251 53.4945 5.38051 52.6345 5.07251C51.7775 4.76551 50.8345 4.59851 49.8325 4.57651L49.6265 4.57351C48.7965 4.57351 47.9705 4.69751 47.1695 4.94051C46.2975 5.20451 45.5065 5.60751 44.8165 6.13751C44.1205 6.67151 43.5525 7.35451 43.1285 8.16751C42.7025 8.98551 42.4855 9.94051 42.4855 11.0065C42.4855 12.0065 42.6635 12.8885 43.0145 13.6285C43.3615 14.3625 43.8355 15.0065 44.4235 15.5415C45.0035 16.0695 45.6925 16.5315 46.4715 16.9135C47.2325 17.2875 48.0655 17.6405 48.9535 17.9645C49.2545 18.0685 49.5935 18.2135 49.9625 18.3975C50.3215 18.5765 50.6575 18.8035 50.9585 19.0725C51.2565 19.3385 51.5145 19.6535 51.7275 20.0095C51.9275 20.3425 52.0285 20.7415 52.0285 21.1945C52.0285 21.6805 51.9425 22.1165 51.7745 22.4905C51.6055 22.8655 51.3785 23.1805 51.0995 23.4275C50.8165 23.6795 50.4855 23.8755 50.1165 24.0105C49.2875 24.3175 48.3985 24.2535 47.6775 24.0375C47.2705 23.9155 46.8785 23.7555 46.5125 23.5625C46.1435 23.3685 45.7875 23.1505 45.4545 22.9135C45.1105 22.6675 44.7815 22.4375 44.4645 22.2205C44.0535 21.9495 43.6085 21.8405 43.1305 21.9035C42.6375 21.9695 42.2155 22.2775 41.8865 22.8065C41.6855 23.0905 41.5775 23.4365 41.5665 23.8355C41.5535 24.2165 41.6295 24.6125 41.7905 25.0125C41.9485 25.4055 42.2035 25.7965 42.5495 26.1735C42.8945 26.5495 43.3575 26.8875 43.9225 27.1755C44.5345 27.5005 45.2685 27.8035 46.1045 28.0735C46.8375 28.3115 47.6255 28.4325 48.4455 28.4325C48.5755 28.4325 48.7075 28.4295 48.8365 28.4225C51.4595 28.3365 53.4455 27.6135 54.7415 26.2755C56.0375 24.9375 56.7155 23.1545 56.7595 20.9795C56.7805 20.1595 56.6865 19.4165 56.4795 18.7695C56.2695 18.1135 55.9225 17.5185 55.4495 16.9985ZM15.4465 27.6775V22.0645H19.0205C19.6115 22.0645 20.0905 21.5295 20.0905 20.8685C20.0905 20.2085 19.6115 19.6735 19.0205 19.6735H15.4365L15.4235 17.6985H22.5235C23.1145 17.6985 23.5935 17.1635 23.5935 16.5035C23.5935 15.8425 23.1145 15.3075 22.5235 15.3075H15.4085L15.3965 13.3965H19.0205C19.6115 13.3965 20.0905 12.8605 20.0905 12.2005C20.0905 11.5395 19.6115 11.0045 19.0205 11.0045H15.3815L15.3475 5.56351L30.2855 16.5515L15.4465 27.6775ZM14.5915 0.460508C14.0435 0.0545082 13.3175 0.000508144 12.7155 0.321508C12.1135 0.636508 11.7355 1.27251 11.7355 1.96951L11.7375 11.0045H5.15651C4.56551 11.0045 4.08651 11.5395 4.08651 12.2005C4.08651 12.8605 4.56551 13.3965 5.15651 13.3965H11.7375L11.7385 15.3075H1.06951C0.478512 15.3075 -0.000488281 15.8425 -0.000488281 16.5035C-0.000488281 17.1635 0.478512 17.6985 1.06951 17.6985H11.7385V19.6735H5.15651C4.56551 19.6735 4.08651 20.2085 4.08651 20.8685C4.08651 21.5295 4.56551 22.0645 5.15651 22.0645H11.7395L11.7415 31.1455C11.7415 31.8425 12.1195 32.4725 12.7215 32.7935C12.9805 32.9335 13.2645 33.0005 13.5475 33.0005C13.9195 33.0005 14.2855 32.8855 14.5975 32.6545L34.4405 18.0855C34.9125 17.7395 35.1965 17.1755 35.1965 16.5815C35.1845 15.9695 34.9065 15.4065 34.4345 15.0605L14.5915 0.460508Z" fill="#FEFEFE"/>
</svg>
